<?xml version="1.0" encoding="iso-8859-1"?>
<!-- Generator: Adobe Illustrator 19.0.0, SVG Export Plug-In . SVG Version: 6.00 Build 0)  -->
<svg version="1.1" id="Capa_1" xmlns="http://www.w3.org/2000/svg" xmlns:xlink="http://www.w3.org/1999/xlink" x="0px" y="0px"
	 viewBox="0 0 512 512" style="enable-background:new 0 0 512 512;" xml:space="preserve">
<path style="fill:#B1EAD4;" d="M504.5,85.156c0,42.888-34.768,77.656-77.656,77.656s-77.656-34.768-77.656-77.656
	S383.955,7.5,426.844,7.5S504.5,42.268,504.5,85.156z"/>
<path style="fill:#A2DAC2;" d="M427.312,96.125l-108.078,206.33l-155.266-87.337L29.347,484.361l-17.889-8.944L147.356,203.62
	c2.103-4.208,5.891-7.414,10.392-8.793c4.501-1.381,9.434-0.847,13.537,1.461l139.794,78.634l98.516-188.076L427.312,96.125z"/>
<path style="fill:#61AE9F;" d="M465.672,85.156c0,21.444-17.384,38.828-38.828,38.828s-38.828-17.384-38.828-38.828
	s17.384-38.828,38.828-38.828C448.288,46.328,465.672,63.712,465.672,85.156z M318.125,279.297
	c-10.722,0-19.414,8.692-19.414,19.414s8.692,19.414,19.414,19.414s19.414-8.692,19.414-19.414S328.847,279.297,318.125,279.297z
	 M162.812,191.934c-10.722,0-19.414,8.692-19.414,19.414s8.692,19.414,19.414,19.414s19.414-8.692,19.414-19.414
	S173.535,191.934,162.812,191.934z M26.914,465.672c-10.722,0-19.414,8.692-19.414,19.414S16.192,504.5,26.914,504.5
	s19.414-8.692,19.414-19.414S37.636,465.672,26.914,465.672z"/>
<path d="M512,85.156c0,46.956-38.201,85.156-85.156,85.156c-3.429,0-6.884-0.207-10.27-0.614c-4.112-0.495-7.046-4.229-6.551-8.342
	c0.495-4.113,4.249-7.044,8.342-6.551c2.794,0.336,5.646,0.506,8.479,0.506c38.685,0,70.156-31.472,70.156-70.156
	S465.528,15,426.844,15s-70.156,31.472-70.156,70.156c0,17.247,6.315,33.825,17.783,46.681c2.758,3.091,2.487,7.832-0.604,10.589
	c-3.09,2.759-7.832,2.487-10.589-0.604c-13.923-15.607-21.59-35.731-21.59-56.666C341.688,38.201,379.889,0,426.844,0
	S512,38.201,512,85.156z M336.757,279.306c5.103,4.901,8.282,11.789,8.282,19.405c0,14.84-12.073,26.914-26.914,26.914
	s-26.914-12.074-26.914-26.914c0-2.11,0.244-4.166,0.706-6.137L181.653,230.55c-4.858,4.767-11.513,7.711-18.84,7.711
	c-1.657,0-3.278-0.15-4.853-0.438L44.505,464.732c5.707,4.939,9.323,12.232,9.323,20.354c0,14.84-12.074,26.914-26.914,26.914
	S0,499.926,0,485.086s12.074-26.914,26.914-26.914c1.343,0,2.665,0.099,3.956,0.29l113.68-227.361
	c-5.318-4.92-8.652-11.955-8.652-19.753c0-14.84,12.074-26.914,26.914-26.914s26.914,12.074,26.914,26.914
	c0,2.11-0.244,4.165-0.706,6.137l110.264,62.024c4.858-4.767,11.512-7.711,18.84-7.711c1.831,0,3.622,0.184,5.352,0.534
	l77.812-148.55c-12.511-8.304-20.772-22.517-20.772-38.625c0-25.545,20.782-46.328,46.328-46.328s46.328,20.783,46.328,46.328
	s-20.782,46.328-46.328,46.328c-4.096,0-8.067-0.534-11.853-1.537L336.757,279.306z M426.844,116.484
	c17.274,0,31.328-14.054,31.328-31.328s-14.054-31.328-31.328-31.328s-31.328,14.054-31.328,31.328S409.569,116.484,426.844,116.484
	z M38.828,485.086c0-6.569-5.345-11.914-11.914-11.914S15,478.517,15,485.086S20.345,497,26.914,497S38.828,491.655,38.828,485.086z
	 M174.727,211.348c0-6.569-5.345-11.914-11.914-11.914s-11.914,5.345-11.914,11.914s5.345,11.914,11.914,11.914
	S174.727,217.917,174.727,211.348z M330.039,298.711c0-6.569-5.345-11.914-11.914-11.914s-11.914,5.345-11.914,11.914
	s5.345,11.914,11.914,11.914S330.039,305.28,330.039,298.711z"/>
<g>
</g>
<g>
</g>
<g>
</g>
<g>
</g>
<g>
</g>
<g>
</g>
<g>
</g>
<g>
</g>
<g>
</g>
<g>
</g>
<g>
</g>
<g>
</g>
<g>
</g>
<g>
</g>
<g>
</g>
</svg>
