<svg id="Capa_1" enable-background="new 0 0 512 512" height="512" viewBox="0 0 512 512" width="512" xmlns="http://www.w3.org/2000/svg"><g><path d="m497 181h-17v-105c0-8.284-6.716-15-15-15s-15 6.716-15 15v105h-30v-75c0-8.284-6.716-15-15-15s-15 6.716-15 15v75h-30v-45c0-8.284-6.716-15-15-15s-15 6.716-15 15v45h-15c-8.284 0-15 6.716-15 15s6.716 15 15 15h182c8.284 0 15-6.716 15-15s-6.716-15-15-15z"/><path d="m465 241h-195v-195c0-8.28-6.72-15-15-15-92.01 0-173.91 55.57-208.29 139.75l213.03 71.02c9.2 3.06 13.13 13.94 7.98 22.18l-119.01 190.41c32.56 17.47 69 26.64 106.29 26.64 124.35 0 225-100.63 225-225 0-8.28-6.72-15-15-15z"/><path d="m24.329 194.92c-8.601-2.867-17.727 2.468-19.477 11.315-3.226 16.31-4.852 32.954-4.852 49.765 0 78.879 36.029 150.438 93.85 197.637 7.033 5.741 17.452 3.972 22.221-3.659l116.109-185.768z"/></g></svg>